<svg width="238" height="75" viewBox="0 0 238 75" fill="none" xmlns="http://www.w3.org/2000/svg">
<path d="M27.36 44.14H18V55H3.6V10H26.28C36.6 10 41.76 15.54 41.76 26.62C41.76 29.06 41.52 31.34 41.04 33.46C40.56 35.58 39.74 37.44 38.58 39.04C37.46 40.6 35.98 41.84 34.14 42.76C32.34 43.68 30.08 44.14 27.36 44.14ZM21.3 21.52H18V32.62H21.3C23.06 32.62 24.32 32.44 25.08 32.08C25.88 31.72 26.28 30.88 26.28 29.56V24.52C26.28 23.24 25.88 22.42 25.08 22.06C24.32 21.7 23.06 21.52 21.3 21.52ZM60.5605 55H46.1605V20.8L60.5605 19V55ZM45.3805 12.22C45.3805 11.14 45.5005 10.24 45.7405 9.52C45.9805 8.76 46.4005 8.16 47.0005 7.72C47.6005 7.24 48.4205 6.9 49.4605 6.7C50.5005 6.5 51.8205 6.4 53.4205 6.4C55.0205 6.4 56.3205 6.5 57.3205 6.7C58.3605 6.9 59.1805 7.24 59.7805 7.72C60.3805 8.16 60.8005 8.76 61.0405 9.52C61.2805 10.24 61.4005 11.14 61.4005 12.22C61.4005 13.3 61.2805 14.2 61.0405 14.92C60.8005 15.64 60.3805 16.24 59.7805 16.72C59.1805 17.16 58.3605 17.48 57.3205 17.68C56.3205 17.84 55.0205 17.92 53.4205 17.92C52.2605 17.92 51.1805 17.88 50.1805 17.8C49.2205 17.72 48.3805 17.5 47.6605 17.14C46.9405 16.74 46.3805 16.16 45.9805 15.4C45.5805 14.64 45.3805 13.58 45.3805 12.22ZM94.2616 44.2L95.1616 54.58C92.6816 55.58 89.4616 56.08 85.5016 56.08C78.7816 56.08 73.9216 54.52 70.9216 51.4C67.9216 48.24 66.4216 43.44 66.4216 37C66.4216 30.56 67.9216 25.78 70.9216 22.66C73.9216 19.5 78.7816 17.92 85.5016 17.92C89.7816 17.92 93.0016 18.42 95.1616 19.42L93.4216 29.2C92.1416 28.96 91.0016 28.78 90.0016 28.66C89.0016 28.5 88.1216 28.42 87.3616 28.42C83.7216 28.42 81.9016 29.7 81.9016 32.26V45.16C82.5816 45.28 83.3616 45.38 84.2416 45.46C85.1616 45.54 86.1816 45.58 87.3016 45.58C89.5416 45.58 91.8616 45.12 94.2616 44.2ZM136.988 55H121.448L115.868 40.72H115.388V55H100.988V8.2L115.388 7.12V30.88H115.868L121.088 19H136.628L128.288 36.16L136.988 55Z" fill="#0A3775"/>
<path d="M155.7 33.16L154.86 55H139.8L142.56 10H161.34L166.92 32.92H167.46L173.04 10H191.88L194.58 55H179.52L178.68 33.16H178.2L172.68 55H161.7L156.12 33.16H155.7ZM214.079 42.76V45.28C214.799 45.36 215.519 45.42 216.239 45.46C216.959 45.5 217.679 45.52 218.399 45.52C222.879 45.52 227.399 44.8 231.959 43.36L233.639 53.92C228.239 55.36 222.919 56.08 217.679 56.08C210.959 56.08 206.099 54.52 203.099 51.4C200.099 48.24 198.599 43.44 198.599 37C198.599 30.56 200.099 25.78 203.099 22.66C206.139 19.5 210.999 17.92 217.679 17.92C221.039 17.92 223.839 18.14 226.079 18.58C228.319 18.98 230.119 19.68 231.479 20.68C232.879 21.64 233.859 22.96 234.419 24.64C235.019 26.28 235.319 28.36 235.319 30.88C235.319 32.96 234.959 34.76 234.239 36.28C233.559 37.76 232.399 38.98 230.759 39.94C229.119 40.9 226.939 41.62 224.219 42.1C221.499 42.54 218.119 42.76 214.079 42.76ZM214.079 31.48V34.42H217.019C218.779 34.42 220.039 34.24 220.799 33.88C221.599 33.52 221.999 32.68 221.999 31.36V28.42H219.059C217.299 28.42 216.019 28.6 215.219 28.96C214.459 29.32 214.079 30.16 214.079 31.48Z" fill="#FC7D12"/>
</svg>
